<svg width="23" height="22" viewBox="0 0 23 22" fill="none" xmlns="http://www.w3.org/2000/svg">
<path d="M11.48 0.0319996C13.64 0.0319996 15.568 0.48 17.264 1.376C18.96 2.256 20.28 3.496 21.224 5.096C22.184 6.696 22.664 8.52 22.664 10.568C22.664 12.616 22.288 14.224 21.536 15.392C20.784 16.56 19.736 17.144 18.392 17.144C17.624 17.144 16.984 16.952 16.472 16.568C15.976 16.168 15.656 15.6 15.512 14.864C15.032 15.6 14.4 16.168 13.616 16.568C12.848 16.952 11.96 17.144 10.952 17.144C9.832 17.144 8.824 16.88 7.928 16.352C7.032 15.824 6.328 15.096 5.816 14.168C5.32 13.224 5.072 12.16 5.072 10.976C5.072 9.808 5.32 8.76 5.816 7.832C6.328 6.888 7.032 6.16 7.928 5.648C8.824 5.12 9.832 4.856 10.952 4.856C11.88 4.856 12.72 5.032 13.472 5.384C14.224 5.72 14.848 6.224 15.344 6.896V4.952H17.432V13.592C17.432 14.184 17.56 14.624 17.816 14.912C18.072 15.184 18.4 15.32 18.8 15.32C19.504 15.32 20.048 14.912 20.432 14.096C20.832 13.264 21.032 12.096 21.032 10.592C21.032 8.816 20.632 7.256 19.832 5.912C19.032 4.552 17.904 3.496 16.448 2.744C15.008 1.992 13.352 1.616 11.48 1.616C9.592 1.616 7.92 2.008 6.464 2.792C5.024 3.576 3.904 4.672 3.104 6.08C2.304 7.488 1.904 9.096 1.904 10.904C1.904 12.728 2.296 14.344 3.08 15.752C3.88 17.16 4.992 18.256 6.416 19.04C7.856 19.84 9.512 20.24 11.384 20.24C12.168 20.24 12.968 20.152 13.784 19.976C14.6 19.8 15.344 19.536 16.016 19.184L16.544 20.72C15.84 21.088 15.024 21.368 14.096 21.56C13.168 21.752 12.264 21.848 11.384 21.848C9.192 21.848 7.24 21.376 5.528 20.432C3.832 19.504 2.512 18.208 1.568 16.544C0.624 14.88 0.152 13 0.152 10.904C0.152 8.808 0.624 6.936 1.568 5.288C2.528 3.64 3.864 2.352 5.576 1.424C7.304 0.495999 9.272 0.0319996 11.48 0.0319996ZM11.288 15.272C12.072 15.272 12.768 15.096 13.376 14.744C14 14.392 14.488 13.896 14.84 13.256C15.208 12.6 15.392 11.84 15.392 10.976C15.392 10.112 15.208 9.36 14.84 8.72C14.488 8.064 14 7.568 13.376 7.232C12.768 6.88 12.072 6.704 11.288 6.704C10.072 6.704 9.088 7.096 8.336 7.88C7.584 8.648 7.208 9.68 7.208 10.976C7.208 12.272 7.584 13.312 8.336 14.096C9.104 14.88 10.088 15.272 11.288 15.272Z" fill="black"/>
</svg>
