<svg width="23" height="33" viewBox="0 0 23 33" fill="none" xmlns="http://www.w3.org/2000/svg">
<path d="M7.2168 33V27.7363H12.5664V33H7.2168ZM7.56055 23.7402L12.8887 17.1016C14.7936 14.7096 15.7461 12.7116 15.7461 11.1074C15.7461 9.48893 15.6315 8.39323 15.4023 7.82031C15.1732 7.23307 14.901 6.79622 14.5859 6.50977C13.8841 5.85091 12.7956 5.52148 11.3203 5.52148C9.85938 5.52148 8.88542 5.6862 8.39844 6.01562C7.91146 6.33073 7.56771 6.61719 7.36719 6.875C6.90885 7.44792 6.67969 8.6582 6.67969 10.5059V12.332H0.792969V10.7422C0.792969 7.79167 1.17969 5.67904 1.95312 4.4043C2.74089 3.12956 3.8724 2.20573 5.34766 1.63281C6.82292 1.04557 8.50586 0.751953 10.3965 0.751953C12.3014 0.766276 13.7695 0.859375 14.8008 1.03125C16.7917 1.375 18.3099 2.00521 19.3555 2.92188C20.4154 3.82422 21.1243 4.86979 21.4824 6.05859C21.8405 7.2474 22.0195 8.7513 22.0195 10.5703C22.0195 12.3893 21.5827 14.0866 20.709 15.6621C19.8353 17.2233 18.3958 18.8346 16.3906 20.4961L12.4805 23.7402H7.56055Z" fill="black"/>
</svg>
